<svg id="Layer_1" data-name="Layer 1" xmlns="http://www.w3.org/2000/svg" viewBox="0 0 15 1000"><rect x="595.73" y="508.84" width="1000" height="15" transform="translate(523.84 -595.73) rotate(90)" style="fill:#c6c6c6"/><rect x="698.67" y="505.43" width="794.13" height="15" transform="translate(520.43 -599.14) rotate(90)" style="fill:#fff"/><line x1="6.5" y1="122" x2="8.5" y2="122" style="fill:none;stroke:#000;stroke-miterlimit:10;stroke-width:0.31622776601683794px"/><line x1="6.5" y1="133" x2="8.5" y2="133" style="fill:none;stroke:#000;stroke-miterlimit:10;stroke-width:0.31622776601683794px"/><line x1="6.5" y1="111" x2="8.5" y2="111" style="fill:none;stroke:#000;stroke-miterlimit:10;stroke-width:0.31622776601683794px"/><line x1="6.5" y1="166" x2="8.5" y2="166" style="fill:none;stroke:#000;stroke-miterlimit:10;stroke-width:0.31622776601683794px"/><line x1="6.5" y1="177" x2="8.5" y2="177" style="fill:none;stroke:#000;stroke-miterlimit:10;stroke-width:0.31622776601683794px"/><line x1="5" y1="144" x2="10" y2="144" style="fill:none;stroke:#000;stroke-miterlimit:10;stroke-width:0.5px"/><line x1="6.5" y1="155" x2="8.5" y2="155" style="fill:none;stroke:#000;stroke-miterlimit:10;stroke-width:0.31622776601683794px"/><line x1="6.5" y1="210" x2="8.5" y2="210" style="fill:none;stroke:#000;stroke-miterlimit:10;stroke-width:0.31622776601683794px"/><line x1="6.5" y1="221" x2="8.5" y2="221" style="fill:none;stroke:#000;stroke-miterlimit:10;stroke-width:0.31622776601683794px"/><line x1="6.5" y1="78" x2="8.5" y2="78" style="fill:none;stroke:#000;stroke-miterlimit:10;stroke-width:0.31622776601683794px"/><line x1="6.5" y1="89" x2="8.5" y2="89" style="fill:none;stroke:#000;stroke-miterlimit:10;stroke-width:0.31622776601683794px"/><line x1="6.5" y1="67" x2="8.5" y2="67" style="fill:none;stroke:#000;stroke-miterlimit:10;stroke-width:0.31622776601683794px"/><line x1="6.5" y1="122" x2="8.5" y2="122" style="fill:none;stroke:#000;stroke-miterlimit:10;stroke-width:0.31622776601683794px"/><line x1="6.5" y1="133" x2="8.5" y2="133" style="fill:none;stroke:#000;stroke-miterlimit:10;stroke-width:0.31622776601683794px"/><line x1="5" y1="100" x2="10" y2="100" style="fill:none;stroke:#000;stroke-miterlimit:10;stroke-width:0.5px"/><line x1="6.5" y1="111" x2="8.5" y2="111" style="fill:none;stroke:#000;stroke-miterlimit:10;stroke-width:0.31622776601683794px"/><line x1="5" y1="144" x2="10" y2="144" style="fill:none;stroke:#000;stroke-miterlimit:10;stroke-width:0.5px"/><line x1="6.5" y1="34" x2="8.5" y2="34" style="fill:none;stroke:#000;stroke-miterlimit:10;stroke-width:0.31622776601683794px"/><line x1="6.5" y1="45" x2="8.5" y2="45" style="fill:none;stroke:#000;stroke-miterlimit:10;stroke-width:0.31622776601683794px"/><line x1="6.5" y1="23" x2="8.5" y2="23" style="fill:none;stroke:#000;stroke-miterlimit:10;stroke-width:0.31622776601683794px"/><line x1="6.5" y1="78" x2="8.5" y2="78" style="fill:none;stroke:#000;stroke-miterlimit:10;stroke-width:0.31622776601683794px"/><line x1="6.5" y1="89" x2="8.5" y2="89" style="fill:none;stroke:#000;stroke-miterlimit:10;stroke-width:0.31622776601683794px"/><line x1="5" y1="56" x2="10" y2="56" style="fill:none;stroke:#000;stroke-miterlimit:10;stroke-width:0.5px"/><line x1="6.5" y1="67" x2="8.5" y2="67" style="fill:none;stroke:#000;stroke-miterlimit:10;stroke-width:0.31622776601683794px"/><line x1="5" y1="100" x2="10" y2="100" style="fill:none;stroke:#000;stroke-miterlimit:10;stroke-width:0.5px"/><line x1="6.5" y1="199" x2="8.5" y2="199" style="fill:none;stroke:#000;stroke-miterlimit:10;stroke-width:0.31622776601683794px"/><line x1="6.5" y1="254" x2="8.5" y2="254" style="fill:none;stroke:#000;stroke-miterlimit:10;stroke-width:0.31622776601683794px"/><line x1="6.5" y1="265" x2="8.5" y2="265" style="fill:none;stroke:#000;stroke-miterlimit:10;stroke-width:0.31622776601683794px"/><line x1="5" y1="232" x2="10" y2="232" style="fill:none;stroke:#000;stroke-miterlimit:10;stroke-width:0.5px"/><line x1="6.5" y1="243" x2="8.5" y2="243" style="fill:none;stroke:#000;stroke-miterlimit:10;stroke-width:0.31622776601683794px"/><line x1="6.5" y1="298" x2="8.5" y2="298" style="fill:none;stroke:#000;stroke-miterlimit:10;stroke-width:0.31622776601683794px"/><line x1="6.5" y1="309" x2="8.5" y2="309" style="fill:none;stroke:#000;stroke-miterlimit:10;stroke-width:0.31622776601683794px"/><line x1="6.5" y1="287" x2="8.5" y2="287" style="fill:none;stroke:#000;stroke-miterlimit:10;stroke-width:0.31622776601683794px"/><line x1="6.5" y1="342" x2="8.5" y2="342" style="fill:none;stroke:#000;stroke-miterlimit:10;stroke-width:0.31622776601683794px"/><line x1="6.5" y1="353" x2="8.5" y2="353" style="fill:none;stroke:#000;stroke-miterlimit:10;stroke-width:0.31622776601683794px"/><line x1="5" y1="320" x2="10" y2="320" style="fill:none;stroke:#000;stroke-miterlimit:10;stroke-width:0.5px"/><line x1="6.5" y1="331" x2="8.5" y2="331" style="fill:none;stroke:#000;stroke-miterlimit:10;stroke-width:0.31622776601683794px"/><line x1="6.5" y1="386" x2="8.5" y2="386" style="fill:none;stroke:#000;stroke-miterlimit:10;stroke-width:0.31622776601683794px"/><line x1="6.5" y1="397" x2="8.5" y2="397" style="fill:none;stroke:#000;stroke-miterlimit:10;stroke-width:0.31622776601683794px"/><line x1="6.5" y1="375" x2="8.5" y2="375" style="fill:none;stroke:#000;stroke-miterlimit:10;stroke-width:0.31622776601683794px"/><line x1="6.5" y1="430" x2="8.5" y2="430" style="fill:none;stroke:#000;stroke-miterlimit:10;stroke-width:0.31622776601683794px"/><line x1="6.5" y1="441" x2="8.5" y2="441" style="fill:none;stroke:#000;stroke-miterlimit:10;stroke-width:0.31622776601683794px"/><line x1="5" y1="408" x2="10" y2="408" style="fill:none;stroke:#000;stroke-miterlimit:10;stroke-width:0.5px"/><line x1="6.5" y1="419" x2="8.5" y2="419" style="fill:none;stroke:#000;stroke-miterlimit:10;stroke-width:0.31622776601683794px"/><line x1="6.5" y1="474" x2="8.5" y2="474" style="fill:none;stroke:#000;stroke-miterlimit:10;stroke-width:0.31622776601683794px"/><line x1="6.5" y1="485" x2="8.5" y2="485" style="fill:none;stroke:#000;stroke-miterlimit:10;stroke-width:0.31622776601683794px"/><line x1="6.5" y1="463" x2="8.5" y2="463" style="fill:none;stroke:#000;stroke-miterlimit:10;stroke-width:0.31622776601683794px"/><line x1="6.5" y1="518" x2="8.5" y2="518" style="fill:none;stroke:#000;stroke-miterlimit:10;stroke-width:0.31622776601683794px"/><line x1="6.5" y1="529" x2="8.5" y2="529" style="fill:none;stroke:#000;stroke-miterlimit:10;stroke-width:0.31622776601683794px"/><line x1="5" y1="496" x2="10" y2="496" style="fill:none;stroke:#000;stroke-miterlimit:10;stroke-width:0.5px"/><line x1="6.5" y1="507" x2="8.5" y2="507" style="fill:none;stroke:#000;stroke-miterlimit:10;stroke-width:0.31622776601683794px"/><line x1="6.5" y1="562" x2="8.5" y2="562" style="fill:none;stroke:#000;stroke-miterlimit:10;stroke-width:0.31622776601683794px"/><line x1="6.5" y1="573" x2="8.5" y2="573" style="fill:none;stroke:#000;stroke-miterlimit:10;stroke-width:0.31622776601683794px"/><line x1="6.5" y1="551" x2="8.5" y2="551" style="fill:none;stroke:#000;stroke-miterlimit:10;stroke-width:0.31622776601683794px"/><line x1="6.5" y1="606" x2="8.5" y2="606" style="fill:none;stroke:#000;stroke-miterlimit:10;stroke-width:0.31622776601683794px"/><line x1="6.5" y1="617" x2="8.5" y2="617" style="fill:none;stroke:#000;stroke-miterlimit:10;stroke-width:0.31622776601683794px"/><line x1="5" y1="584" x2="10" y2="584" style="fill:none;stroke:#000;stroke-miterlimit:10;stroke-width:0.5px"/><line x1="6.5" y1="595" x2="8.5" y2="595" style="fill:none;stroke:#000;stroke-miterlimit:10;stroke-width:0.31622776601683794px"/><line x1="6.5" y1="650" x2="8.5" y2="650" style="fill:none;stroke:#000;stroke-miterlimit:10;stroke-width:0.31622776601683794px"/><line x1="6.5" y1="661" x2="8.5" y2="661" style="fill:none;stroke:#000;stroke-miterlimit:10;stroke-width:0.31622776601683794px"/><line x1="6.5" y1="639" x2="8.5" y2="639" style="fill:none;stroke:#000;stroke-miterlimit:10;stroke-width:0.31622776601683794px"/><line x1="6.5" y1="694" x2="8.5" y2="694" style="fill:none;stroke:#000;stroke-miterlimit:10;stroke-width:0.31622776601683794px"/><line x1="6.5" y1="705" x2="8.5" y2="705" style="fill:none;stroke:#000;stroke-miterlimit:10;stroke-width:0.31622776601683794px"/><line x1="5" y1="672" x2="10" y2="672" style="fill:none;stroke:#000;stroke-miterlimit:10;stroke-width:0.5px"/><line x1="6.5" y1="683" x2="8.5" y2="683" style="fill:none;stroke:#000;stroke-miterlimit:10;stroke-width:0.31622776601683794px"/><line x1="6.5" y1="738" x2="8.5" y2="738" style="fill:none;stroke:#000;stroke-miterlimit:10;stroke-width:0.31622776601683794px"/><line x1="6.5" y1="749" x2="8.5" y2="749" style="fill:none;stroke:#000;stroke-miterlimit:10;stroke-width:0.31622776601683794px"/><line x1="6.5" y1="727" x2="8.5" y2="727" style="fill:none;stroke:#000;stroke-miterlimit:10;stroke-width:0.31622776601683794px"/><line x1="6.5" y1="782" x2="8.5" y2="782" style="fill:none;stroke:#000;stroke-miterlimit:10;stroke-width:0.31622776601683794px"/><line x1="6.5" y1="793" x2="8.5" y2="793" style="fill:none;stroke:#000;stroke-miterlimit:10;stroke-width:0.31622776601683794px"/><line x1="6.5" y1="815" x2="8.5" y2="815" style="fill:none;stroke:#000;stroke-miterlimit:10;stroke-width:0.31622776601683794px"/><line x1="6.5" y1="826" x2="8.5" y2="826" style="fill:none;stroke:#000;stroke-miterlimit:10;stroke-width:0.31622776601683794px"/><line x1="6.5" y1="837" x2="8.5" y2="837" style="fill:none;stroke:#000;stroke-miterlimit:10;stroke-width:0.31622776601683794px"/><line x1="5" y1="848" x2="10" y2="848" style="fill:none;stroke:#000;stroke-miterlimit:10;stroke-width:0.5px"/><line x1="6.5" y1="859" x2="8.5" y2="859" style="fill:none;stroke:#000;stroke-miterlimit:10;stroke-width:0.31622776601683794px"/><line x1="6.5" y1="870" x2="8.5" y2="870" style="fill:none;stroke:#000;stroke-miterlimit:10;stroke-width:0.31622776601683794px"/><line x1="6.5" y1="881" x2="8.5" y2="881" style="fill:none;stroke:#000;stroke-miterlimit:10;stroke-width:0.31622776601683794px"/><line x1="5" y1="760" x2="10" y2="760" style="fill:none;stroke:#000;stroke-miterlimit:10;stroke-width:0.5px"/><line x1="6.5" y1="771" x2="8.5" y2="771" style="fill:none;stroke:#000;stroke-miterlimit:10;stroke-width:0.31622776601683794px"/><line x1="6.5" y1="870" x2="8.5" y2="870" style="fill:none;stroke:#000;stroke-miterlimit:10;stroke-width:0.31622776601683794px"/><line x1="6.5" y1="881" x2="8.5" y2="881" style="fill:none;stroke:#000;stroke-miterlimit:10;stroke-width:0.31622776601683794px"/><line x1="6.5" y1="903" x2="8.5" y2="903" style="fill:none;stroke:#000;stroke-miterlimit:10;stroke-width:0.31622776601683794px"/><line x1="6.5" y1="914" x2="8.5" y2="914" style="fill:none;stroke:#000;stroke-miterlimit:10;stroke-width:0.31622776601683794px"/><line x1="6.5" y1="925" x2="8.5" y2="925" style="fill:none;stroke:#000;stroke-miterlimit:10;stroke-width:0.31622776601683794px"/><line x1="5" y1="936" x2="10" y2="936" style="fill:none;stroke:#000;stroke-miterlimit:10;stroke-width:0.5px"/><line x1="6.5" y1="947" x2="8.5" y2="947" style="fill:none;stroke:#000;stroke-miterlimit:10;stroke-width:0.31622776601683794px"/><line x1="6.5" y1="958" x2="8.5" y2="958" style="fill:none;stroke:#000;stroke-miterlimit:10;stroke-width:0.31622776601683794px"/><line x1="6.5" y1="969" x2="8.5" y2="969" style="fill:none;stroke:#000;stroke-miterlimit:10;stroke-width:0.31622776601683794px"/><path d="M1095.27,905.54a6.12,6.12,0,0,1,3.32.74,2.57,2.57,0,0,1,1.13,2.3,2.73,2.73,0,0,1-.18,1,2.87,2.87,0,0,1-.55.88l-.58-.52a1.9,1.9,0,0,0,.4-.64,2.11,2.11,0,0,0,.13-.79,1.78,1.78,0,0,0-.76-1.55,4.34,4.34,0,0,0-2.45-.54v0a1.75,1.75,0,0,1,.75.67,2.14,2.14,0,0,1,.24,1,2.11,2.11,0,0,1-.67,1.62,2.42,2.42,0,0,1-1.73.63,2.5,2.5,0,0,1-1.85-.7,2.37,2.37,0,0,1-.72-1.77,2,2,0,0,1,.92-1.79A4.56,4.56,0,0,1,1095.27,905.54Zm-.79,1a2.22,2.22,0,0,0-1.43.43,1.33,1.33,0,0,0-.55,1.1,1.39,1.39,0,0,0,.48,1.07,2,2,0,0,0,2.5,0,1.56,1.56,0,0,0,0-2.17A1.4,1.4,0,0,0,1094.48,906.5Z" transform="translate(-1088.23 -16.34)"/><path d="M1097.44,822.58a2.24,2.24,0,0,1-1.19-.37,2.07,2.07,0,0,1-.84-1.06,2.33,2.33,0,0,1-.72.8,1.65,1.65,0,0,1-1,.29,1.78,1.78,0,0,1-1.4-.62,2.17,2.17,0,0,1-.56-1.54,2.19,2.19,0,0,1,.56-1.55,1.82,1.82,0,0,1,1.4-.61,1.65,1.65,0,0,1,1,.29,2.39,2.39,0,0,1,.72.79,2.09,2.09,0,0,1,.84-1,2.24,2.24,0,0,1,1.19-.37,2.12,2.12,0,0,1,1.63.69,2.55,2.55,0,0,1,.64,1.81,2.6,2.6,0,0,1-.63,1.8A2.15,2.15,0,0,1,1097.44,822.58Zm-3.65-1.23a1.24,1.24,0,0,0,.92-.38,1.19,1.19,0,0,0,.37-.9,1.26,1.26,0,0,0-1.29-1.27,1.22,1.22,0,0,0-.92.37,1.3,1.3,0,0,0,0,1.83A1.29,1.29,0,0,0,1093.79,821.35Zm3.57.27a1.46,1.46,0,0,0,1.57-1.55,1.53,1.53,0,0,0-.43-1.11,1.51,1.51,0,0,0-1.14-.44,1.58,1.58,0,0,0-1.1.42,1.46,1.46,0,0,0-.46,1.13,1.51,1.51,0,0,0,1.56,1.55Z" transform="translate(-1088.23 -16.34)"/><path d="M1092.39,729.7q1.63.93,3.39,1.71a15.34,15.34,0,0,0,3.8,1.08v.94a14.31,14.31,0,0,1-3.74-1.1,34.24,34.24,0,0,1-3.16-1.59v3.86h-.8v-4.9Z" transform="translate(-1088.23 -16.34)"/><path d="M1097.14,641.78a2.55,2.55,0,0,1,1.87.69,2.31,2.31,0,0,1,.71,1.73,2.11,2.11,0,0,1-.92,1.81,4.41,4.41,0,0,1-2.61.66,8.84,8.84,0,0,1-1.68-.16,3.73,3.73,0,0,1-1.56-.66,2.76,2.76,0,0,1-.91-1,2.79,2.79,0,0,1-.29-1.32,2.44,2.44,0,0,1,.13-.8,2.57,2.57,0,0,1,.39-.75l.61.44a1.84,1.84,0,0,0-.38,1.16,1.73,1.73,0,0,0,.2.86,2,2,0,0,0,.66.72,3,3,0,0,0,1,.44,4.87,4.87,0,0,0,1.3.16v0a2.2,2.2,0,0,1-.66-.8,2.32,2.32,0,0,1-.22-1,2.06,2.06,0,0,1,.67-1.6A2.44,2.44,0,0,1,1097.14,641.78Zm.06.9a1.84,1.84,0,0,0-1.27.39,1.33,1.33,0,0,0-.42,1,1.56,1.56,0,0,0,.46,1.18,1.52,1.52,0,0,0,1.09.43,2.13,2.13,0,0,0,1.37-.42,1.36,1.36,0,0,0,.53-1.12,1.37,1.37,0,0,0-.45-1.07A1.9,1.9,0,0,0,1097.2,642.68Z" transform="translate(-1088.23 -16.34)"/><path d="M1098.89,558.71l-.6-.46a2.55,2.55,0,0,0,.61-1.74,1.75,1.75,0,0,0-.47-1.25,1.59,1.59,0,0,0-1.21-.49,1.45,1.45,0,0,0-1.18.51,2.21,2.21,0,0,0-.43,1.46c0,.21,0,.43,0,.68s0,.45,0,.63l-3.86-.27v-3.56h.79V557l2.26.16c0-.12,0-.24,0-.37s0-.24,0-.34a2.78,2.78,0,0,1,.62-1.91,2.19,2.19,0,0,1,1.71-.69,2.36,2.36,0,0,1,1.8.74,2.69,2.69,0,0,1,.68,1.89,3.63,3.63,0,0,1-.18,1.17A3.71,3.71,0,0,1,1098.89,558.71Z" transform="translate(-1088.23 -16.34)"/><path d="M1091.81,467.51H1097v-.83h.82v.83h1.84v.87h-1.84V472H1097c-.38-.34-.8-.68-1.23-1s-.89-.68-1.34-1-.9-.61-1.35-.87a13.9,13.9,0,0,0-1.3-.69ZM1097,471v-2.66h-3.84c.48.28.91.53,1.28.77l1,.69.84.64Z" transform="translate(-1088.23 -16.34)"/><path d="M1099.06,382.82l-.63-.41a3.94,3.94,0,0,0,.41-.86,3.28,3.28,0,0,0,.12-.88,1.83,1.83,0,0,0-.4-1.29,1.42,1.42,0,0,0-1-.43,1.32,1.32,0,0,0-1.16.54,2.83,2.83,0,0,0-.38,1.61v.64h-.74v-.6a2.35,2.35,0,0,0-.36-1.43,1.29,1.29,0,0,0-1.11-.48,1.16,1.16,0,0,0-.93.38,1.29,1.29,0,0,0-.33.89,2.41,2.41,0,0,0,.14.85,2.79,2.79,0,0,0,.43.79l-.58.46a3.34,3.34,0,0,1-.56-1,3.45,3.45,0,0,1-.18-1.14,2.28,2.28,0,0,1,.51-1.55,1.79,1.79,0,0,1,1.4-.58,1.84,1.84,0,0,1,1.18.39,2.13,2.13,0,0,1,.7,1.15h0a2.14,2.14,0,0,1,.58-1.3,1.7,1.7,0,0,1,1.3-.52,2.1,2.1,0,0,1,1.67.71,2.74,2.74,0,0,1,.61,1.84,4.28,4.28,0,0,1-.16,1.16A3.91,3.91,0,0,1,1099.06,382.82Z" transform="translate(-1088.23 -16.34)"/><path d="M1099.65,293.8h-.38a2.87,2.87,0,0,1-.87-.11,2.4,2.4,0,0,1-.72-.35,4,4,0,0,1-.67-.65c-.23-.27-.48-.59-.77-1a6.55,6.55,0,0,0-.57-.7,2.72,2.72,0,0,0-.55-.45,1.92,1.92,0,0,0-.52-.24,2.49,2.49,0,0,0-.61-.08,1.49,1.49,0,0,0-1,.36,1.33,1.33,0,0,0-.4,1,2.44,2.44,0,0,0,.2,1,2.74,2.74,0,0,0,.59.84l-.51.54a3.16,3.16,0,0,1-.77-1.09,3.26,3.26,0,0,1-.25-1.31,2.06,2.06,0,0,1,2.1-2.22,2.86,2.86,0,0,1,.82.12,2.63,2.63,0,0,1,.7.32,4.38,4.38,0,0,1,.64.53,7.1,7.1,0,0,1,.62.74l.64.9a4.77,4.77,0,0,0,.5.55,1.58,1.58,0,0,0,.48.3,1.75,1.75,0,0,0,.54.08v-3.83h.79Z" transform="translate(-1088.23 -16.34)"/><path d="M1099.67,204.34v.88h-6.6a3,3,0,0,1,.42.71,5.63,5.63,0,0,1,.35.9l-.78.25a5.93,5.93,0,0,0-.52-1.31,5.22,5.22,0,0,0-.74-1.1v-.33Z" transform="translate(-1088.23 -16.34)"/><path d="M1099.67,26.51v.88h-6.6a3,3,0,0,1,.42.71,5.63,5.63,0,0,1,.35.9l-.78.25a5.93,5.93,0,0,0-.52-1.31,5.22,5.22,0,0,0-.74-1.1v-.33Z" transform="translate(-1088.23 -16.34)"/><line x1="5" y1="848" x2="10" y2="848" style="fill:none;stroke:#000;stroke-miterlimit:10;stroke-width:0.5px"/><line x1="6.5" y1="859" x2="8.5" y2="859" style="fill:none;stroke:#000;stroke-miterlimit:10;stroke-width:0.31622776601683794px"/></svg>