<svg id="Layer_1" data-name="Layer 1" xmlns="http://www.w3.org/2000/svg" viewBox="0 0 801.34 19.07"><rect x="1.34" y="0.62" width="800" height="15" style="fill:#c6c6c6"/><rect x="89.86" y="0.62" width="616" height="15" style="fill:#fff"/><line x1="23.34" y1="9.12" x2="23.34" y2="7.12" style="fill:none;stroke:#000;stroke-miterlimit:10;stroke-width:0.31622776601683794px"/><line x1="34.34" y1="9.12" x2="34.34" y2="7.12" style="fill:none;stroke:#000;stroke-miterlimit:10;stroke-width:0.31622776601683794px"/><line x1="12.34" y1="9.12" x2="12.34" y2="7.12" style="fill:none;stroke:#000;stroke-miterlimit:10;stroke-width:0.31622776601683794px"/><line x1="67.34" y1="9.12" x2="67.34" y2="7.12" style="fill:none;stroke:#000;stroke-miterlimit:10;stroke-width:0.31622776601683794px"/><line x1="78.34" y1="9.12" x2="78.34" y2="7.12" style="fill:none;stroke:#000;stroke-miterlimit:10;stroke-width:0.31622776601683794px"/><line x1="45.34" y1="10.62" x2="45.34" y2="5.62" style="fill:none;stroke:#000;stroke-miterlimit:10;stroke-width:0.5px"/><line x1="56.34" y1="9.12" x2="56.34" y2="7.12" style="fill:none;stroke:#000;stroke-miterlimit:10;stroke-width:0.31622776601683794px"/><line x1="111.34" y1="9.12" x2="111.34" y2="7.12" style="fill:none;stroke:#000;stroke-miterlimit:10;stroke-width:0.31622776601683794px"/><line x1="122.34" y1="9.12" x2="122.34" y2="7.12" style="fill:none;stroke:#000;stroke-miterlimit:10;stroke-width:0.31622776601683794px"/><line x1="89.34" y1="10.62" x2="89.34" y2="5.62" style="fill:none;stroke:#000;stroke-miterlimit:10;stroke-width:0.5px"/><line x1="100.34" y1="9.12" x2="100.34" y2="7.12" style="fill:none;stroke:#000;stroke-miterlimit:10;stroke-width:0.31622776601683794px"/><line x1="155.34" y1="9.12" x2="155.34" y2="7.12" style="fill:none;stroke:#000;stroke-miterlimit:10;stroke-width:0.31622776601683794px"/><line x1="166.34" y1="9.12" x2="166.34" y2="7.12" style="fill:none;stroke:#000;stroke-miterlimit:10;stroke-width:0.31622776601683794px"/><line x1="133.34" y1="10.62" x2="133.34" y2="5.62" style="fill:none;stroke:#000;stroke-miterlimit:10;stroke-width:0.5px"/><line x1="144.34" y1="9.12" x2="144.34" y2="7.12" style="fill:none;stroke:#000;stroke-miterlimit:10;stroke-width:0.31622776601683794px"/><line x1="199.34" y1="9.12" x2="199.34" y2="7.12" style="fill:none;stroke:#000;stroke-miterlimit:10;stroke-width:0.31622776601683794px"/><line x1="210.34" y1="9.12" x2="210.34" y2="7.12" style="fill:none;stroke:#000;stroke-miterlimit:10;stroke-width:0.31622776601683794px"/><line x1="188.34" y1="9.12" x2="188.34" y2="7.12" style="fill:none;stroke:#000;stroke-miterlimit:10;stroke-width:0.31622776601683794px"/><line x1="243.34" y1="9.12" x2="243.34" y2="7.12" style="fill:none;stroke:#000;stroke-miterlimit:10;stroke-width:0.31622776601683794px"/><line x1="254.34" y1="9.12" x2="254.34" y2="7.12" style="fill:none;stroke:#000;stroke-miterlimit:10;stroke-width:0.31622776601683794px"/><line x1="221.34" y1="10.62" x2="221.34" y2="5.62" style="fill:none;stroke:#000;stroke-miterlimit:10;stroke-width:0.5px"/><line x1="232.34" y1="9.12" x2="232.34" y2="7.12" style="fill:none;stroke:#000;stroke-miterlimit:10;stroke-width:0.31622776601683794px"/><line x1="287.34" y1="9.12" x2="287.34" y2="7.12" style="fill:none;stroke:#000;stroke-miterlimit:10;stroke-width:0.31622776601683794px"/><line x1="298.34" y1="9.12" x2="298.34" y2="7.12" style="fill:none;stroke:#000;stroke-miterlimit:10;stroke-width:0.31622776601683794px"/><line x1="276.34" y1="9.12" x2="276.34" y2="7.12" style="fill:none;stroke:#000;stroke-miterlimit:10;stroke-width:0.31622776601683794px"/><line x1="331.34" y1="9.12" x2="331.34" y2="7.12" style="fill:none;stroke:#000;stroke-miterlimit:10;stroke-width:0.31622776601683794px"/><line x1="342.34" y1="9.12" x2="342.34" y2="7.12" style="fill:none;stroke:#000;stroke-miterlimit:10;stroke-width:0.31622776601683794px"/><line x1="309.34" y1="10.62" x2="309.34" y2="5.62" style="fill:none;stroke:#000;stroke-miterlimit:10;stroke-width:0.5px"/><line x1="320.34" y1="9.12" x2="320.34" y2="7.12" style="fill:none;stroke:#000;stroke-miterlimit:10;stroke-width:0.31622776601683794px"/><line x1="375.34" y1="9.12" x2="375.34" y2="7.12" style="fill:none;stroke:#000;stroke-miterlimit:10;stroke-width:0.31622776601683794px"/><line x1="386.34" y1="9.12" x2="386.34" y2="7.12" style="fill:none;stroke:#000;stroke-miterlimit:10;stroke-width:0.31622776601683794px"/><line x1="364.34" y1="9.12" x2="364.34" y2="7.12" style="fill:none;stroke:#000;stroke-miterlimit:10;stroke-width:0.31622776601683794px"/><line x1="419.34" y1="9.12" x2="419.34" y2="7.12" style="fill:none;stroke:#000;stroke-miterlimit:10;stroke-width:0.31622776601683794px"/><line x1="430.34" y1="9.12" x2="430.34" y2="7.12" style="fill:none;stroke:#000;stroke-miterlimit:10;stroke-width:0.31622776601683794px"/><line x1="397.34" y1="10.62" x2="397.34" y2="5.62" style="fill:none;stroke:#000;stroke-miterlimit:10;stroke-width:0.5px"/><line x1="408.34" y1="9.12" x2="408.34" y2="7.12" style="fill:none;stroke:#000;stroke-miterlimit:10;stroke-width:0.31622776601683794px"/><line x1="463.34" y1="9.12" x2="463.34" y2="7.12" style="fill:none;stroke:#000;stroke-miterlimit:10;stroke-width:0.31622776601683794px"/><line x1="474.34" y1="9.12" x2="474.34" y2="7.12" style="fill:none;stroke:#000;stroke-miterlimit:10;stroke-width:0.31622776601683794px"/><line x1="452.34" y1="9.12" x2="452.34" y2="7.12" style="fill:none;stroke:#000;stroke-miterlimit:10;stroke-width:0.31622776601683794px"/><line x1="507.34" y1="9.12" x2="507.34" y2="7.12" style="fill:none;stroke:#000;stroke-miterlimit:10;stroke-width:0.31622776601683794px"/><line x1="518.34" y1="9.12" x2="518.34" y2="7.12" style="fill:none;stroke:#000;stroke-miterlimit:10;stroke-width:0.31622776601683794px"/><line x1="485.34" y1="10.62" x2="485.34" y2="5.62" style="fill:none;stroke:#000;stroke-miterlimit:10;stroke-width:0.5px"/><line x1="496.34" y1="9.12" x2="496.34" y2="7.12" style="fill:none;stroke:#000;stroke-miterlimit:10;stroke-width:0.31622776601683794px"/><line x1="551.34" y1="9.12" x2="551.34" y2="7.12" style="fill:none;stroke:#000;stroke-miterlimit:10;stroke-width:0.31622776601683794px"/><line x1="562.34" y1="9.12" x2="562.34" y2="7.12" style="fill:none;stroke:#000;stroke-miterlimit:10;stroke-width:0.31622776601683794px"/><line x1="540.34" y1="9.12" x2="540.34" y2="7.12" style="fill:none;stroke:#000;stroke-miterlimit:10;stroke-width:0.31622776601683794px"/><line x1="595.34" y1="9.12" x2="595.34" y2="7.12" style="fill:none;stroke:#000;stroke-miterlimit:10;stroke-width:0.31622776601683794px"/><line x1="606.34" y1="9.12" x2="606.34" y2="7.12" style="fill:none;stroke:#000;stroke-miterlimit:10;stroke-width:0.31622776601683794px"/><line x1="573.34" y1="10.62" x2="573.34" y2="5.62" style="fill:none;stroke:#000;stroke-miterlimit:10;stroke-width:0.5px"/><line x1="584.34" y1="9.12" x2="584.34" y2="7.12" style="fill:none;stroke:#000;stroke-miterlimit:10;stroke-width:0.31622776601683794px"/><line x1="639.34" y1="9.12" x2="639.34" y2="7.12" style="fill:none;stroke:#000;stroke-miterlimit:10;stroke-width:0.31622776601683794px"/><line x1="650.34" y1="9.12" x2="650.34" y2="7.12" style="fill:none;stroke:#000;stroke-miterlimit:10;stroke-width:0.31622776601683794px"/><line x1="628.34" y1="9.12" x2="628.34" y2="7.12" style="fill:none;stroke:#000;stroke-miterlimit:10;stroke-width:0.31622776601683794px"/><line x1="683.34" y1="9.12" x2="683.34" y2="7.12" style="fill:none;stroke:#000;stroke-miterlimit:10;stroke-width:0.31622776601683794px"/><line x1="694.34" y1="9.12" x2="694.34" y2="7.12" style="fill:none;stroke:#000;stroke-miterlimit:10;stroke-width:0.31622776601683794px"/><line x1="716.34" y1="9.12" x2="716.34" y2="7.12" style="fill:none;stroke:#000;stroke-miterlimit:10;stroke-width:0.31622776601683794px"/><line x1="727.34" y1="9.12" x2="727.34" y2="7.12" style="fill:none;stroke:#000;stroke-miterlimit:10;stroke-width:0.31622776601683794px"/><line x1="738.34" y1="9.12" x2="738.34" y2="7.12" style="fill:none;stroke:#000;stroke-miterlimit:10;stroke-width:0.31622776601683794px"/><line x1="749.34" y1="10.62" x2="749.34" y2="5.62" style="fill:none;stroke:#000;stroke-miterlimit:10;stroke-width:0.5px"/><line x1="760.34" y1="9.12" x2="760.34" y2="7.12" style="fill:none;stroke:#000;stroke-miterlimit:10;stroke-width:0.31622776601683794px"/><line x1="771.34" y1="9.12" x2="771.34" y2="7.12" style="fill:none;stroke:#000;stroke-miterlimit:10;stroke-width:0.31622776601683794px"/><line x1="782.34" y1="9.12" x2="782.34" y2="7.12" style="fill:none;stroke:#000;stroke-miterlimit:10;stroke-width:0.31622776601683794px"/><line x1="661.34" y1="10.62" x2="661.34" y2="5.62" style="fill:none;stroke:#000;stroke-miterlimit:10;stroke-width:0.5px"/><line x1="672.34" y1="9.12" x2="672.34" y2="7.12" style="fill:none;stroke:#000;stroke-miterlimit:10;stroke-width:0.31622776601683794px"/><path d="M696,440.34h-.92v-6.7a3.29,3.29,0,0,1-.75.42,4.5,4.5,0,0,1-1,.35l-.26-.78a6.75,6.75,0,0,0,1.38-.54,4.77,4.77,0,0,0,1.15-.75H696Z" transform="translate(-693.14 -428.22)"/><path d="M871.1,440.34h-.92v-6.7a3.29,3.29,0,0,1-.75.42,4.5,4.5,0,0,1-.95.35l-.26-.78a6.75,6.75,0,0,0,1.38-.54,4.77,4.77,0,0,0,1.15-.75h.35Z" transform="translate(-693.14 -428.22)"/><polygon points="94.07 15.78 94.07 12.69 89.55 8.01 85 12.72 85 15.78 94.07 15.78" style="fill:#fff;stroke:#555;stroke-miterlimit:10;stroke-width:0.5px"/><path d="M955.75,440.34V440a3,3,0,0,1,.12-.89,2.29,2.29,0,0,1,.37-.73,4.49,4.49,0,0,1,.69-.69c.28-.23.63-.49,1-.78a6.17,6.17,0,0,0,.74-.59,3,3,0,0,0,.48-.55,1.91,1.91,0,0,0,.25-.54,2.11,2.11,0,0,0,.09-.62,1.45,1.45,0,0,0-.39-1.05,1.4,1.4,0,0,0-1.06-.41,2.7,2.7,0,0,0-1,.2,2.87,2.87,0,0,0-.9.61l-.57-.53a3.48,3.48,0,0,1,2.55-1,2.29,2.29,0,0,1,1.75.65,2.13,2.13,0,0,1,.6,1.5,2.87,2.87,0,0,1-.12.83,2.41,2.41,0,0,1-.35.72,3.72,3.72,0,0,1-.56.65,7.88,7.88,0,0,1-.78.64c-.38.25-.7.47-.95.66a4,4,0,0,0-.59.51,1.45,1.45,0,0,0-.31.48,1.59,1.59,0,0,0-.09.55h4.06v.81Z" transform="translate(-693.14 -428.22)"/><path d="M1043.73,439.68l.43-.63a3.74,3.74,0,0,0,.89.41,3.65,3.65,0,0,0,.92.13,1.94,1.94,0,0,0,1.34-.41,1.38,1.38,0,0,0,.45-1.05,1.32,1.32,0,0,0-.56-1.17,3.07,3.07,0,0,0-1.68-.38h-.67v-.75h.63a2.54,2.54,0,0,0,1.49-.36,1.26,1.26,0,0,0,.5-1.11,1.16,1.16,0,0,0-.39-.94,1.4,1.4,0,0,0-.94-.33,2.84,2.84,0,0,0-.88.14,2.62,2.62,0,0,0-.82.44l-.49-.59a3.57,3.57,0,0,1,1-.56,3.7,3.7,0,0,1,1.18-.18,2.44,2.44,0,0,1,1.62.51,1.76,1.76,0,0,1,.61,1.41,1.85,1.85,0,0,1-.4,1.18,2.23,2.23,0,0,1-1.21.71v0a2.31,2.31,0,0,1,1.36.58,1.68,1.68,0,0,1,.54,1.3,2.06,2.06,0,0,1-.74,1.68,2.89,2.89,0,0,1-1.92.61,4.27,4.27,0,0,1-1.21-.16A4.13,4.13,0,0,1,1043.73,439.68Z" transform="translate(-693.14 -428.22)"/><polygon points="85 0.25 85 3.34 89.52 8.02 94.07 3.3 94.07 0.25 85 0.25" style="fill:#fff;stroke:#555;stroke-miterlimit:10;stroke-width:0.5px"/><path d="M1136.78,432.34v5.28h.88v.84h-.88v1.88h-.93v-1.88H1132v-.79c.36-.4.72-.82,1.09-1.27s.72-.9,1.06-1.36.64-.92.93-1.38a14.74,14.74,0,0,0,.72-1.32Zm-3.74,5.28h2.81v-3.91c-.29.49-.56.92-.81,1.3s-.5.74-.73,1.05l-.67.85Z" transform="translate(-693.14 -428.22)"/><path d="M1220.43,439.56l.49-.61a2.65,2.65,0,0,0,.87.47,3.05,3.05,0,0,0,1,.15,1.88,1.88,0,0,0,1.32-.48,1.62,1.62,0,0,0,.52-1.23,1.46,1.46,0,0,0-.54-1.21,2.41,2.41,0,0,0-1.55-.43h-.72l-.67,0,.28-3.94h3.78v.81h-3l-.16,2.31.38,0h.37a3,3,0,0,1,2,.64,2.16,2.16,0,0,1,.73,1.73,2.33,2.33,0,0,1-.78,1.84,2.89,2.89,0,0,1-2,.7,3.81,3.81,0,0,1-1.25-.19A3.57,3.57,0,0,1,1220.43,439.56Z" transform="translate(-693.14 -428.22)"/><path d="M1312.4,437.75a2.5,2.5,0,0,1-.72,1.88,2.43,2.43,0,0,1-1.8.71,2.22,2.22,0,0,1-1.89-.92,4.28,4.28,0,0,1-.69-2.62,9,9,0,0,1,.16-1.69,3.88,3.88,0,0,1,.69-1.57,2.88,2.88,0,0,1,1-.91,3.12,3.12,0,0,1,1.38-.29,2.51,2.51,0,0,1,.82.13,2.64,2.64,0,0,1,.79.39l-.46.61a1.92,1.92,0,0,0-.57-.29,2.2,2.2,0,0,0-.64-.09,2,2,0,0,0-.9.2,2.42,2.42,0,0,0-.75.67,2.93,2.93,0,0,0-.46,1,4.77,4.77,0,0,0-.16,1.3h0a2.1,2.1,0,0,1,.83-.66,2.35,2.35,0,0,1,1-.22,2.15,2.15,0,0,1,1.67.67A2.37,2.37,0,0,1,1312.4,437.75Zm-.94.07a1.8,1.8,0,0,0-.41-1.28,1.4,1.4,0,0,0-1.06-.42,1.66,1.66,0,0,0-1.23.46,1.5,1.5,0,0,0-.45,1.1,2.09,2.09,0,0,0,.44,1.37,1.45,1.45,0,0,0,1.16.54,1.46,1.46,0,0,0,1.12-.46A1.82,1.82,0,0,0,1311.46,437.82Z" transform="translate(-693.14 -428.22)"/><path d="M1401.58,432.87a36.62,36.62,0,0,0-1.83,3.52,14.74,14.74,0,0,0-1.17,3.95h-1a14.69,14.69,0,0,1,1.19-3.89c.59-1.25,1.16-2.35,1.72-3.28h-4.17v-.83h5.28Z" transform="translate(-693.14 -428.22)"/><path d="M1483.57,438.27a2.49,2.49,0,0,1,.42-1.35,2.4,2.4,0,0,1,1.19-.95,2.58,2.58,0,0,1-.89-.81,1.86,1.86,0,0,1-.34-1.1,2.07,2.07,0,0,1,.7-1.59,2.52,2.52,0,0,1,1.75-.63,2.45,2.45,0,0,1,1.75.64,2,2,0,0,1,.7,1.58,1.92,1.92,0,0,1-.33,1.1,2.67,2.67,0,0,1-.89.81,2.42,2.42,0,0,1,1.18.95,2.49,2.49,0,0,1,.42,1.35,2.41,2.41,0,0,1-.78,1.85,3.26,3.26,0,0,1-4.09,0A2.39,2.39,0,0,1,1483.57,438.27Zm1.09-.09a1.75,1.75,0,0,0,.48,1.3,1.76,1.76,0,0,0,3-1.3,1.79,1.79,0,0,0-.47-1.24,1.65,1.65,0,0,0-1.28-.52,1.68,1.68,0,0,0-1.75,1.76Zm.31-4a1.43,1.43,0,0,0,1.44,1.46,1.46,1.46,0,0,0,0-2.92,1.37,1.37,0,0,0-1.05.43A1.47,1.47,0,0,0,1485,434.14Z" transform="translate(-693.14 -428.22)"/><rect x="85" y="15.73" width="9.07" height="3.09" style="fill:#fff;stroke:#555;stroke-miterlimit:10;stroke-width:0.5px"/><polygon points="710.39 17.7 710.39 14.72 705.88 10.21 701.33 14.75 701.33 17.7 710.39 17.7" style="fill:#fff;stroke:#555;stroke-miterlimit:10;stroke-width:0.37477358812495676px"/></svg>